<svg xmlns="http://www.w3.org/2000/svg" xmlns:xlink="http://www.w3.org/1999/xlink" width="1190" height="48" viewBox="0 0 1190 48">
  <defs>
    <filter id="icone-circle-chevron-left" x="0" y="0" width="48" height="48" filterUnits="userSpaceOnUse">
      <feOffset dy="3" input="SourceAlpha"/>
      <feGaussianBlur stdDeviation="3" result="blur"/>
      <feFlood flood-opacity="0.161"/>
      <feComposite operator="in" in2="blur"/>
      <feComposite in="SourceGraphic"/>
    </filter>
    <filter id="icone-circle-chevron-right" x="1142" y="0" width="48" height="48" filterUnits="userSpaceOnUse">
      <feOffset dy="3" input="SourceAlpha"/>
      <feGaussianBlur stdDeviation="3" result="blur-2"/>
      <feFlood flood-opacity="0.161"/>
      <feComposite operator="in" in2="blur-2"/>
      <feComposite in="SourceGraphic"/>
    </filter>
  </defs>
  <g id="Grupo_circle_chevron" data-name="Grupo circle chevron" transform="translate(5 6)">
    <g transform="matrix(1, 0, 0, 1, -5, -6)" filter="url(#icone-circle-chevron-left)">
      <path id="icone-circle-chevron-left-2" data-name="icone-circle-chevron-left" d="M18.375,3.375a15,15,0,1,0,15,15A15,15,0,0,0,18.375,3.375ZM21.5,24.223a1.4,1.4,0,0,1,0,1.969,1.375,1.375,0,0,1-.981.4,1.4,1.4,0,0,1-.988-.411l-6.779-6.8a1.39,1.39,0,0,1,.043-1.918l6.88-6.9a1.392,1.392,0,0,1,1.969,1.969l-5.906,5.841Z" transform="translate(5.63 2.63)" fill="#444"/>
    </g>
    <g transform="matrix(1, 0, 0, 1, -5, -6)" filter="url(#icone-circle-chevron-right)">
      <path id="icone-circle-chevron-right-2" data-name="icone-circle-chevron-right" d="M18.375,3.375a15,15,0,1,1-15,15A15,15,0,0,1,18.375,3.375Zm-3.13,20.849a1.4,1.4,0,0,0,0,1.969,1.375,1.375,0,0,0,.981.4,1.4,1.4,0,0,0,.988-.411l6.779-6.8a1.39,1.39,0,0,0-.043-1.918l-6.88-6.9A1.392,1.392,0,1,0,15.1,12.534l5.906,5.841Z" transform="translate(1147.62 2.63)" fill="#444"/>
    </g>
  </g>
</svg>
