<svg id="Icone_perfil" data-name="Icone perfil" xmlns="http://www.w3.org/2000/svg" width="28" height="28" viewBox="0 0 28 28">
  <path id="Caminho" d="M434.728,599.051a14,14,0,0,1-5.335-26.944,14.119,14.119,0,0,1,5.344-1.056h0a14,14,0,0,1-.011,28Zm.011-26.81a12.807,12.807,0,0,0-11.85,17.688,12.806,12.806,0,1,0,11.85-17.687Z" transform="translate(-420.725 -571.051)" fill="#e9b425"/>
  <path id="Caminho-2" data-name="Caminho" d="M441.369,581.824a5.107,5.107,0,1,1-5.107,5.107,5.107,5.107,0,0,1,5.107-5.107h0Z" transform="translate(-427.369 -576.805)" fill="#e9b425"/>
  <path id="Caminho-3" data-name="Caminho" d="M439.457,608.849a11.123,11.123,0,0,1-8.5-3.959,6.471,6.471,0,0,1,5.716-3.47,1.4,1.4,0,0,1,.412.064,7.238,7.238,0,0,0,4.747,0,1.409,1.409,0,0,1,.412-.064,6.47,6.47,0,0,1,5.716,3.47,11.121,11.121,0,0,1-8.5,3.958Z" transform="translate(-425.457 -583.867)" fill="#e9b425"/>
</svg>
