<svg xmlns="http://www.w3.org/2000/svg" width="78" height="79.498" viewBox="0 0 78 79.498">
  <g id="Icone-phone-cel" transform="translate(9.031 0.745)">
    <rect id="Retângulo" width="78" height="78" transform="translate(-9.031 0.004)" fill="none"/>
    <path id="Caminho" d="M6.007.014,35.9,0c3.3,0,5.978,3.075,5.976,6.872l-.025,55c0,3.8-2.68,6.876-5.982,6.877l-29.895.014C2.674,68.762,0,65.686,0,61.889l.025-55C.027,3.094,2.705.015,6.007.014Z" transform="translate(-0.032 12.248) rotate(-17)" fill="#fff" stroke="#fff" stroke-linecap="round" stroke-linejoin="round" stroke-width="1.2"/>
    <g id="Elipse" transform="translate(35.798 63.821) rotate(-17)" fill="#fff">
      <path d="M 2.185298204421997 3.770598173141479 C 1.311158180236816 3.770598173141479 0.5999981760978699 3.059438228607178 0.5999981760978699 2.185298204421997 C 0.5999981760978699 1.311158180236816 1.311158180236816 0.5999981760978699 2.185298204421997 0.5999981760978699 C 3.059438228607178 0.5999981760978699 3.770598173141479 1.311158180236816 3.770598173141479 2.185298204421997 C 3.770598173141479 3.059438228607178 3.059438228607178 3.770598173141479 2.185298204421997 3.770598173141479 Z" stroke="none"/>
      <path d="M 2.185298204421997 1.199998140335083 C 1.641998291015625 1.199998140335083 1.199998140335083 1.641998291015625 1.199998140335083 2.185298204421997 C 1.199998140335083 2.728598117828369 1.641998291015625 3.170598030090332 2.185298204421997 3.170598030090332 C 2.728598117828369 3.170598030090332 3.170598030090332 2.728598117828369 3.170598030090332 2.185298204421997 C 3.170598030090332 1.641998291015625 2.728598117828369 1.199998140335083 2.185298204421997 1.199998140335083 M 2.185298204421997 -1.9073486328125e-06 C 3.392208099365234 -1.9073486328125e-06 4.370598316192627 0.9783883094787598 4.370598316192627 2.185298204421997 C 4.370598316192627 3.392208099365234 3.392208099365234 4.370598316192627 2.185298204421997 4.370598316192627 C 0.9783883094787598 4.370598316192627 -1.9073486328125e-06 3.392208099365234 -1.9073486328125e-06 2.185298204421997 C -1.9073486328125e-06 0.9783883094787598 0.9783883094787598 -1.9073486328125e-06 2.185298204421997 -1.9073486328125e-06 Z" stroke="none" fill="#0fb1a9"/>
    </g>
    <path id="Caminho-2" data-name="Caminho" d="M4.988,0,29.963.031a5.146,5.146,0,0,1,5,5.262l.053,42.043a5.115,5.115,0,0,1-4.988,5.249L5.054,52.554a5.146,5.146,0,0,1-5-5.262L0,5.249A5.115,5.115,0,0,1,4.988,0Z" transform="translate(4.457 14.262) rotate(-17)" fill="#ffce00"/>
  </g>
</svg>
