<svg xmlns="http://www.w3.org/2000/svg" width="60" height="60" viewBox="0 0 60 60">
  <g id="Icone-boleto-60x60px" transform="translate(-891 -679)">
    <rect id="Retângulo" width="60" height="60" transform="translate(891 679)" fill="none"/>
    <path id="Boleto" d="M2.109,46H0V0H2.109Zm2.109-.033H3.147V0H4.219Zm3.147,0H6.328V0H7.366Zm5.257,0H11.585V0h1.038Zm5.257,0H15.8V0h2.076Zm4.219,0H21.06V0H22.1Zm2.109,0H23.17V0h1.038Zm2.109,0H25.279V0h1.038Zm5.257,0H29.464V0h2.109Zm5.257,0H34.721V0H36.83Zm4.219,0H38.94V0h2.109Zm4.219,0H43.158V0h2.109Zm3.147,0H46.306V0h2.109Zm6.328,0H51.6V0h3.147Zm2.109,0H55.781V0h1.071ZM60,46H57.891V0H60Z" transform="translate(891 686)" fill="#e9b425"/>
  </g>
</svg>
