<svg id="Icone-ajuda-28x28px" xmlns="http://www.w3.org/2000/svg" width="28" height="28" viewBox="0 0 28 28">
  <rect id="Retângulo" width="28" height="28" fill="none"/>
  <g id="Elipse" fill="none" stroke="#e9b425" stroke-width="1">
    <circle cx="14" cy="14" r="14" stroke="none"/>
    <circle cx="14" cy="14" r="13.5" fill="none"/>
  </g>
  <path id="Caminho" d="M894.088,336.658a6.532,6.532,0,0,0-5.95,3.446.675.675,0,0,0,.139.878l1.769,1.419a.59.59,0,0,0,.851-.115c.912-1.225,1.537-1.935,2.925-1.935,1.042,0,2.333.71,2.333,1.781,0,.809-.631,1.225-1.661,1.836-1.2.713-2.79,1.6-2.79,3.819V348a.631.631,0,0,0,.613.649h2.859a.632.632,0,0,0,.613-.649v-.068c0-1.537,4.247-1.6,4.247-5.765C900.037,339.037,896.965,336.658,894.088,336.658Z" transform="translate(-880.034 -331.653)" fill="#e9b425"/>
  <path id="Caminho-2" data-name="Caminho" d="M895.17,354.1a2.5,2.5,0,1,0,2.5,2.5h0A2.5,2.5,0,0,0,895.17,354.1Z" transform="translate(-881.67 -336.098)" fill="#e9b425"/>
</svg>
