<svg id="Icone-atendimento-28x28px" xmlns="http://www.w3.org/2000/svg" width="28" height="28" viewBox="0 0 28 28">
  <rect id="Retângulo" width="28" height="28" fill="none"/>
  <g id="Icone_atendimento" data-name="Icone atendimento">
    <path id="Caminho" d="M1037.9,391.05h13.241a2.9,2.9,0,0,1,2.9,2.9v9.1a2.9,2.9,0,0,1-2.9,2.9h-8.932l-4.016,4.017a.414.414,0,0,1-.707-.293v-3.753a2.9,2.9,0,0,1-2.483-2.867v-9.1A2.9,2.9,0,0,1,1037.9,391.05Zm-2.069,12a2.071,2.071,0,0,0,2.069,2.069.414.414,0,0,1,.414.414v3.139l3.431-3.432a.416.416,0,0,1,.293-.121h9.1a2.071,2.071,0,0,0,2.069-2.069v-9.1a2.071,2.071,0,0,0-2.069-2.069H1037.9a2.071,2.071,0,0,0-2.069,2.069Z" transform="translate(-1034.998 -388.05)" fill="#666"/>
    <path id="Caminho-2" data-name="Caminho" d="M1143.57,419.8h-4.859l.039.8h4.82a2,2,0,0,1,1.994,1.994v8.773a2,2,0,0,1-1.994,1.994.4.4,0,0,0-.4.4v3.025l-3.306-3.307a.4.4,0,0,0-.283-.116h-8.773a2,2,0,0,1-1.8-1.149c-.422-.032-.731-.062-.883-.09a2.8,2.8,0,0,0,2.687,2.037h8.608l3.87,3.871a.4.4,0,0,0,.282.116.413.413,0,0,0,.153-.03.4.4,0,0,0,.246-.369v-3.617a2.8,2.8,0,0,0,2.393-2.764V422.6A2.8,2.8,0,0,0,1143.57,419.8Z" transform="translate(-1118.73 -413.904)" fill="#666"/>
    <circle id="Elipse" cx="1" cy="1" r="1" transform="translate(5.002 9.614)" fill="#666"/>
    <circle id="Elipse-2" data-name="Elipse" cx="1" cy="1" r="1" transform="translate(9.002 9.614)" fill="#666"/>
    <circle id="Elipse-3" data-name="Elipse" cx="1" cy="1" r="1" transform="translate(13.002 9.614)" fill="#666"/>
  </g>
</svg>
