<svg xmlns="http://www.w3.org/2000/svg" width="60" height="60" viewBox="0 0 60 60">
  <g id="Icone-meios-de-pagamento-60x60px" transform="translate(0.279 6.127)">
    <rect id="Retângulo" width="60" height="60" transform="translate(-0.279 -6.127)" fill="none"/>
    <path id="Caminho" d="M541.537,504.622l-.15,0H505.45a6.909,6.909,0,0,1-6.9-6.9V468.744a6.909,6.909,0,0,1,6.9-6.9h33.321a5.459,5.459,0,0,1,5.453,5.453,2.558,2.558,0,0,1-2.556,2.555H506.9a.342.342,0,1,0,0,.684h34.5a5.616,5.616,0,0,1,5.72,5.42v23.213A5.606,5.606,0,0,1,541.537,504.622ZM505.45,464.056a4.694,4.694,0,0,0-4.689,4.689v28.975a4.694,4.694,0,0,0,4.689,4.689h35.965a3.4,3.4,0,0,0,3.495-3.273V475.988a3.391,3.391,0,0,0-3.464-3.24H506.9a2.555,2.555,0,1,1,0-5.11h34.769a.343.343,0,0,0,.343-.342,3.244,3.244,0,0,0-3.24-3.24Zm31.873,27.526a4,4,0,1,1,4-4A4.01,4.01,0,0,1,537.323,491.581Zm0-5.8a1.792,1.792,0,1,0,1.791,1.791A1.793,1.793,0,0,0,537.323,485.786Z" transform="translate(-498.549 -457.049)" fill="#e9b425"/>
    <path id="Caminho-2" data-name="Caminho" d="M571.249,462.832c-2.152-.559-2.844-1.133-2.844-2.033,0-1.033.953-1.758,2.559-1.758,1.688,0,2.313.806,2.37,1.991h2.1a3.774,3.774,0,0,0-3.043-3.614v-2.075h-2.844v2.045c-1.839.4-3.319,1.588-3.319,3.422,0,2.19,1.815,3.28,4.455,3.916,2.375.569,2.844,1.4,2.844,2.286,0,.649-.459,1.692-2.559,1.692-1.953,0-2.729-.877-2.825-1.991h-2.089a3.981,3.981,0,0,0,3.494,3.631V472.4h2.843v-2.032c1.844-.356,3.319-1.422,3.319-3.37,0-2.683-2.3-3.6-4.456-4.166Z" transform="translate(-516.265 -455.343)" fill="#e9b425"/>
  </g>
</svg>
