<svg xmlns="http://www.w3.org/2000/svg" width="60" height="60" viewBox="0 0 60 60">
  <g id="Icone-extrato-60x60px" transform="translate(-788 -711)">
    <rect id="Retângulo" width="60" height="60" transform="translate(788 711)" fill="none"/>
    <path id="Caminho" d="M975.909,338.728c-2.768-.719-3.658-1.458-3.658-2.616,0-1.328,1.226-2.262,3.292-2.262,2.17,0,2.974,1.037,3.048,2.561h2.7a4.855,4.855,0,0,0-3.914-4.649v-2.669h-3.658v2.63c-2.367.518-4.269,2.042-4.269,4.4,0,2.817,2.334,4.219,5.731,5.036,3.055.731,3.658,1.8,3.658,2.941,0,.835-.591,2.177-3.291,2.177-2.512,0-3.51-1.129-3.633-2.561h-2.687c.153,2.671,2.146,4.163,4.494,4.67v2.647h3.658v-2.613c2.371-.457,4.269-1.829,4.269-4.335,0-3.453-2.96-4.633-5.731-5.359Z" transform="translate(-170.631 388.615)" fill="#e9b425"/>
    <path id="Caminho-2" data-name="Caminho" d="M999.126,334.206H983.242a1.21,1.21,0,0,1,0-2.4h15.884a1.209,1.209,0,0,1,0,2.4Z" transform="translate(-168.385 388.794)" fill="#e9b425"/>
    <path id="Caminho-3" data-name="Caminho" d="M1000.758,344.206H982.83a1.2,1.2,0,1,1,0-2.4h17.928a1.2,1.2,0,1,1,0,2.4Z" transform="translate(-168.994 390.794)" fill="#e9b425"/>
    <path id="Caminho-4" data-name="Caminho" d="M987.872,354.206H968.727a1.2,1.2,0,1,1,0-2.4h19.145a1.2,1.2,0,1,1,0,2.4Z" transform="translate(-170.5 392.797)" fill="#e9b425"/>
    <path id="Caminho-5" data-name="Caminho" d="M984.272,363.206H968.733a1.2,1.2,0,1,1,0-2.4h15.538a1.2,1.2,0,1,1,0,2.4Z" transform="translate(-171.7 395.797)" fill="#e9b425"/>
    <path id="Circle" d="M1000.268,350.806a13.2,13.2,0,1,1-13.2,13.2h0a13.2,13.2,0,0,1,13.195-13.2Zm-1.538,7.643,4.018,3.854h-9.719a1.275,1.275,0,0,0-1.277,1.272v.857a1.275,1.275,0,0,0,1.272,1.277h9.724l-4.018,3.854a1.279,1.279,0,0,0-.037,1.808l.016.017.586.581a1.272,1.272,0,0,0,1.8.006l.006-.006,7.063-7.057a1.272,1.272,0,0,0,.006-1.8l-.006-.006-7.065-7.07a1.272,1.272,0,0,0-1.8-.006l-.006.006-.586.581a1.286,1.286,0,0,0,.009,1.818l.012.012Z" transform="translate(-168.468 393.794)" fill="#e9b425"/>
    <path id="Caminho-6" data-name="Caminho" d="M987.494,378.051a1.362,1.362,0,0,0-1.084-.564H966.736a.933.933,0,0,1-.917-.944V327.428a.933.933,0,0,1,.917-.944h39.446a.932.932,0,0,1,.917.944v22.463a1.424,1.424,0,0,0,.835,1.288l.029.013a1.356,1.356,0,0,0,1.889-1.289v-22.47a3.728,3.728,0,0,0-3.669-3.778H966.736a3.73,3.73,0,0,0-3.669,3.778v49.115a3.729,3.729,0,0,0,3.669,3.778h19.7a1.4,1.4,0,0,0,1.085-2.245Z" transform="translate(-172.067 387.345)" fill="#e9b425"/>
  </g>
</svg>
