<svg xmlns="http://www.w3.org/2000/svg" width="60" height="60" viewBox="0 0 60 60">
  <g id="Icone-meus-produtos-60x60px" transform="translate(0)">
    <rect id="Retângulo" width="60" height="60" fill="none"/>
    <path id="Caminho" d="M269.387,519.267a4.188,4.188,0,1,1,4.187-4.189A4.194,4.194,0,0,1,269.387,519.267Zm0-5.537a1.349,1.349,0,1,0,1.348,1.348A1.351,1.351,0,0,0,269.387,513.73Z" transform="translate(-247.131 -459.267)" fill="#e9b425"/>
    <path id="Caminho-2" data-name="Caminho" d="M301.88,519.267a4.188,4.188,0,1,1,4.188-4.189A4.194,4.194,0,0,1,301.88,519.267Zm0-5.537a1.349,1.349,0,1,0,1.349,1.348A1.35,1.35,0,0,0,301.88,513.73Z" transform="translate(-251.611 -459.267)" fill="#e9b425"/>
    <path id="Caminho-3" data-name="Caminho" d="M268.382,498.232a6.593,6.593,0,0,1-6.4-5.473l-4.359-22.633a1.342,1.342,0,0,1-.035-.181l-2.379-12.353h-9.339a1.376,1.376,0,0,1,0-2.749H256.3a1.34,1.34,0,0,1,1.3,1.105l2.4,12.443h43.224a1.311,1.311,0,0,1,1.022.5,1.414,1.414,0,0,1,.281,1.134l-4.17,22.728a6.6,6.6,0,0,1-6.545,5.479H268.382Zm-7.853-27.092,4.06,21.085a3.925,3.925,0,0,0,3.817,3.258h25.506a3.93,3.93,0,0,0,3.839-3.254l3.869-21.088Z" transform="translate(-244.549 -454.843)" fill="#e9b425"/>
  </g>
</svg>
