<svg xmlns="http://www.w3.org/2000/svg" xmlns:xlink="http://www.w3.org/1999/xlink" width="48" height="48" viewBox="0 0 48 48">
  <defs>
    <filter id="icone-circle-chevron-left" x="0" y="0" width="48" height="48" filterUnits="userSpaceOnUse">
      <feOffset dy="3" input="SourceAlpha"/>
      <feGaussianBlur stdDeviation="3" result="blur"/>
      <feFlood flood-opacity="0.161"/>
      <feComposite operator="in" in2="blur"/>
      <feComposite in="SourceGraphic"/>
    </filter>
  </defs>
  <g transform="matrix(1, 0, 0, 1, 0, 0)" filter="url(#icone-circle-chevron-left)">
    <path id="icone-circle-chevron-left-2" data-name="icone-circle-chevron-left" d="M18.375,3.375a15,15,0,1,0,15,15A15,15,0,0,0,18.375,3.375ZM21.5,24.223a1.4,1.4,0,0,1,0,1.969,1.375,1.375,0,0,1-.981.4,1.4,1.4,0,0,1-.988-.411l-6.779-6.8a1.39,1.39,0,0,1,.043-1.918l6.88-6.9a1.392,1.392,0,0,1,1.969,1.969l-5.906,5.841Z" transform="translate(5.63 2.63)" fill="#444"/>
  </g>
</svg>
