<svg id="Icone-whatsapp-28x28px" xmlns="http://www.w3.org/2000/svg" width="28" height="28" viewBox="0 0 28 28">
  <rect id="Retângulo" width="28" height="28" fill="none"/>
  <g id="whatsapp" transform="translate(1 1)">
    <path id="Uniao" d="M667.8,382.336l2.131-6.513a12.99,12.99,0,1,1,4.889,4.618Zm7.151-2.967.178.1a12,12,0,1,0-4.23-3.985l.129.2-1.7,5.2Z" transform="translate(-667.801 -356)" fill="#666"/>
    <path id="whatsapp-2" data-name="whatsapp" d="M22.536,18.789c-.281-.14-2.11-.979-2.391-1.119a.665.665,0,0,0-.844.14c-.281.28-.844,1.119-1.125,1.4-.141.28-.422.28-.7.14a11.513,11.513,0,0,1-2.813-1.678,16.116,16.116,0,0,1-1.969-2.377.612.612,0,0,1,.141-.7c.141-.14.281-.419.563-.559a1.058,1.058,0,0,0,.281-.559.423.423,0,0,0,0-.559A24.782,24.782,0,0,1,12.549,10.4c-.141-.979-.422-.979-.7-.979h-.7a1.608,1.608,0,0,0-.844.419,4.013,4.013,0,0,0-1.266,2.936,7.3,7.3,0,0,0,1.407,3.635,14.969,14.969,0,0,0,5.908,5.174,11.068,11.068,0,0,0,1.969.7,4.04,4.04,0,0,0,2.251.14,3.644,3.644,0,0,0,2.391-1.678,2.326,2.326,0,0,0,.141-1.678l-.563-.28" transform="translate(-3 -2.975)" fill="#666"/>
  </g>
</svg>
