<?xml version="1.0" encoding="UTF-8"?>
<svg width="46" height="24" viewBox="0 0 46 24" fill="none" xmlns="http://www.w3.org/2000/svg">
  <path d="M45.1235 11.9998C45.1235 18.6273 39.7509 23.9999 33.1235 23.9999C26.496 23.9999 21.1235 18.6273 21.1235 11.9998C21.1235 5.37239 26.496 -0.000152588 33.1235 -0.000152588C39.7509 -0.000152588 45.1235 5.37239 45.1235 11.9998Z" fill="#A21C20"/>
  <path d="M33.1235 23.9999C39.7509 23.9999 45.1235 18.6273 45.1235 11.9998C45.1235 5.37239 39.7509 -0.000152588 33.1235 -0.000152588" fill="#CE242C"/>
  <path d="M24 11.9998C24 18.6273 18.6274 23.9999 12 23.9999C5.37258 23.9999 0 18.6273 0 11.9998C0 5.37239 5.37258 -0.000152588 12 -0.000152588C18.6274 -0.000152588 24 5.37239 24 11.9998Z" fill="#A21C20"/>
  <path d="M12 23.9999C18.6274 23.9999 24 18.6273 24 11.9998C24 5.37239 18.6274 -0.000152588 12 -0.000152588" fill="#CE242C"/>
</svg> 